<?xml version="1.0" encoding="UTF-8"?>
<svg version="1.1" xmlns="http://www.w3.org/2000/svg" width="1998" height="536">
<path d="M0 0 C1.46177422 -0.00855011 1.46177422 -0.00855011 2.95307922 -0.01727295 C5.00948015 -0.02666408 7.06589573 -0.0332333 9.12231445 -0.03710938 C12.18534634 -0.0467091 15.24767485 -0.0777455 18.31054688 -0.109375 C57.95714748 -0.32186905 97.07709518 9.61639333 132.55078125 27.203125 C133.25879883 27.54633789 133.96681641 27.88955078 134.69628906 28.24316406 C156.0864984 38.67620652 175.71741314 52.76943275 193.1171875 68.95703125 C195.15483401 70.83768413 197.23170731 72.61957096 199.36328125 74.390625 C220.03050735 92.48499234 236.26566046 116.34604189 249.55078125 140.203125 C246.41295695 143.69734416 242.95815884 145.83023266 238.86328125 148.015625 C231.69145049 151.94509611 224.67277952 156.09595104 217.67578125 160.328125 C209.02259656 165.55260262 200.31993563 170.67577566 191.55078125 175.703125 C181.68704722 181.35974133 171.90472083 187.13863549 162.171875 193.01757812 C159.30121018 194.75121174 156.42735162 196.47930856 153.55078125 198.203125 C151.90674316 199.18925781 151.90674316 199.18925781 150.22949219 200.1953125 C149.14700195 200.83726562 148.06451172 201.47921875 146.94921875 202.140625 C145.96356934 202.72714844 144.97791992 203.31367188 143.96240234 203.91796875 C141.55078125 205.203125 141.55078125 205.203125 139.55078125 205.203125 C137.99415422 202.68693336 136.54279753 200.16541993 135.11328125 197.578125 C116.33237367 164.76377253 86.20194124 142.26846317 49.94433594 131.85058594 C12.68919305 121.77300139 -26.11466393 127.5139241 -59.4855957 146.51513672 C-62.53534888 148.3206282 -65.50301344 150.23410079 -68.44921875 152.203125 C-69.47015625 152.87730469 -70.49109375 153.55148438 -71.54296875 154.24609375 C-79.5698858 160.12294373 -83.53448546 167.32903173 -87.44921875 176.203125 C-87.90506348 177.21028564 -87.90506348 177.21028564 -88.37011719 178.23779297 C-106.71471649 219.43972386 -107.63272532 268.24513898 -91.5625 310.28125 C-87.15049951 321.29102271 -82.04131529 332.31498019 -75.44921875 342.203125 C-68.44814514 341.60559318 -61.96057856 340.21228556 -55.18359375 338.38671875 C-54.09776505 338.09894058 -53.01193634 337.81116241 -51.89320374 337.5146637 C-48.32618251 336.56522895 -44.7624539 335.60416602 -41.19921875 334.640625 C-39.96626068 334.30877197 -38.73330261 333.97691895 -37.46298218 333.63500977 C11.86601233 320.33309416 60.91253008 305.46581711 108.73803711 287.43823242 C109.84155518 287.0229126 110.94507324 286.60759277 112.08203125 286.1796875 C113.02626953 285.81955566 113.97050781 285.45942383 114.94335938 285.08837891 C117.47008827 284.23052132 119.92489536 283.6611698 122.55078125 283.203125 C122.46828125 282.130625 122.38578125 281.058125 122.30078125 279.953125 C122.55078125 276.203125 122.55078125 276.203125 124.42578125 273.828125 C128.22192332 270.92519283 130.7694897 270.7979308 135.55078125 271.203125 C138.28125 273.22265625 138.28125 273.22265625 140.55078125 275.203125 C144.46583865 273.53232431 148.38020385 271.85991524 152.29394531 270.18603516 C153.62448687 269.61723673 154.9552141 269.04887242 156.28613281 268.48095703 C158.20296838 267.66293528 160.11912313 266.84333674 162.03515625 266.0234375 C163.18725586 265.53117676 164.33935547 265.03891602 165.52636719 264.53173828 C167.90992084 263.48465247 170.23938868 262.39850185 172.55078125 261.203125 C172.05578125 260.501875 171.56078125 259.800625 171.05078125 259.078125 C169.27055483 255.66602436 169.01831734 254.00643861 169.55078125 250.203125 C170.21753964 248.97136252 170.92889492 247.76301586 171.67578125 246.578125 C172.29453125 245.464375 172.91328125 244.350625 173.55078125 243.203125 C172.04836478 238.44372176 167.91984182 234.18163609 164.91992188 230.24804688 C163.71972418 228.62057185 162.62645093 226.91545797 161.55078125 225.203125 C162.55078125 222.203125 162.55078125 222.203125 164.9296875 220.921875 C174.53352942 217.2453122 184.88146041 213.98595174 195.26953125 214.32421875 C199.03383957 214.18529785 199.98264304 213.59680891 202.67578125 211.078125 C213.11793242 202.27815828 225.5222545 198.80561797 238.92578125 198.828125 C239.88315186 198.82901123 240.84052246 198.82989746 241.8269043 198.83081055 C251.11328913 198.98239045 259.64274725 200.69176914 268.55078125 203.203125 C269.55496094 203.47640625 270.55914063 203.7496875 271.59375 204.03125 C277.22492089 205.71433446 277.22492089 205.71433446 279.55078125 209.203125 C279.29349074 224.99432999 268.38637361 245.05068092 257.84765625 255.99609375 C250.65186264 262.91041925 239.10004778 272.203125 228.55078125 272.203125 C228.34453125 273.06035156 228.13828125 273.91757812 227.92578125 274.80078125 C226.20178396 279.066695 223.82780353 281.49192973 220.55078125 284.640625 C219.97352295 285.20612061 219.39626465 285.77161621 218.80151367 286.35424805 C206.46609274 298.203125 206.46609274 298.203125 201.55078125 298.203125 C200.58936108 295.99609128 199.63158588 293.78758967 198.67578125 291.578125 C198.40636719 290.96066406 198.13695312 290.34320313 197.859375 289.70703125 C196.22651465 285.92357433 194.79561062 282.13098467 193.55078125 278.203125 C192.74253906 278.11675781 191.93429687 278.03039062 191.1015625 277.94140625 C189.49861328 277.73064453 189.49861328 277.73064453 187.86328125 277.515625 C186.27966797 277.32419922 186.27966797 277.32419922 184.6640625 277.12890625 C180.83707397 275.99089335 179.1406103 274.17734427 176.55078125 271.203125 C175.65101563 271.77417969 174.75125 272.34523438 173.82421875 272.93359375 C147.64050614 289.4706754 120.68176102 304.65925831 93.16015625 318.84765625 C90.78033164 320.08388251 88.41290535 321.33973329 86.05078125 322.609375 C44.94448478 344.67730499 1.91050528 363.07396391 -41.44921875 380.203125 C-29.84503295 392.26026229 -8.78205864 408.48017643 8.296875 409.40625 C40.32775081 409.95402339 72.02384713 401.00668875 97.55078125 381.203125 C98.47761719 380.49671875 99.40445312 379.7903125 100.359375 379.0625 C117.19027289 365.7887706 129.43722399 350.01028448 139.55078125 331.203125 C143.68561785 332.7342581 147.47561746 334.71931971 151.30078125 336.890625 C151.98414551 337.27653809 152.66750977 337.66245117 153.37158203 338.06005859 C160.87395223 342.33189999 168.2526859 346.80938649 175.64355469 351.27026367 C183.22885901 355.83829998 190.8692618 360.29906926 198.55078125 364.703125 C215.73266288 374.56149674 232.73170045 384.73717611 249.55078125 395.203125 C246.18893097 402.33871418 242.33914724 408.92061133 237.92578125 415.453125 C237.31259033 416.36553955 236.69939941 417.2779541 236.06762695 418.21801758 C228.95830093 428.69321851 221.30137583 438.53684395 212.71484375 447.8515625 C211.27117008 449.42031981 209.84905788 451.00919386 208.44921875 452.6171875 C198.35008248 464.18528904 186.81411485 474.01242266 174.55078125 483.203125 C173.69033203 483.84894531 173.69033203 483.84894531 172.8125 484.5078125 C164.07738896 491.01478009 155.04376638 496.86426843 145.55078125 502.203125 C144.39280029 502.85498779 144.39280029 502.85498779 143.21142578 503.52001953 C103.20744555 525.78840085 59.13684995 536.68562475 13.48828125 536.515625 C11.92782578 536.51239227 11.92782578 536.51239227 10.33584595 536.50909424 C-4.78539322 536.45879719 -19.57291944 536.17091871 -34.44921875 533.203125 C-35.47063965 533.00444824 -36.49206055 532.80577148 -37.54443359 532.60107422 C-80.97843052 523.91687684 -122.38540739 505.77773785 -156.44921875 477.203125 C-157.68856683 476.19632492 -158.92817003 475.18983884 -160.16796875 474.18359375 C-161.47089629 473.10779246 -162.77298229 472.03097113 -164.07421875 470.953125 C-164.70344238 470.44531494 -165.33266602 469.93750488 -165.98095703 469.41430664 C-167.73828125 467.9375 -167.73828125 467.9375 -170.44921875 465.203125 C-170.44921875 461.203125 -170.44921875 461.203125 -168.66796875 459.1875 C-153.22696187 446.4974771 -136.16545005 435.44536393 -118.44921875 426.203125 C-117.81677246 425.86909668 -117.18432617 425.53506836 -116.53271484 425.19091797 C-94.8737997 413.81007342 -72.36656871 405.34989651 -48.44921875 400.203125 C-51.21805071 398.72018918 -53.98961605 397.24243638 -56.76171875 395.765625 C-57.54740234 395.34474609 -58.33308594 394.92386719 -59.14257812 394.49023438 C-59.89990234 394.08740234 -60.65722656 393.68457031 -61.4375 393.26953125 C-62.13399658 392.89771729 -62.83049316 392.52590332 -63.5480957 392.14282227 C-66.72971228 390.57019581 -68.0458176 390.09540126 -71.55493164 391.0324707 C-72.84697123 391.47240035 -74.13575467 391.92196107 -75.421875 392.37890625 C-76.87548697 392.87720108 -78.32910032 393.37549191 -79.78271484 393.8737793 C-80.55186218 394.14120941 -81.32100952 394.40863953 -82.11346436 394.68417358 C-86.2101128 396.10444166 -90.31967415 397.48616031 -94.4296875 398.8671875 C-95.69253571 399.29178505 -95.69253571 399.29178505 -96.980896 399.72496033 C-166.99781252 423.16137216 -261.21620369 450.03437665 -331.44921875 416.203125 C-339.08074684 411.84812109 -347.15742075 405.66121707 -350.44921875 397.203125 C-351.79059472 387.19439661 -350.07880823 379.53723891 -344.44921875 371.203125 C-341.65800236 367.64100123 -338.62887437 364.4190899 -335.44921875 361.203125 C-334.71058594 360.40390625 -333.97195313 359.6046875 -333.2109375 358.78125 C-312.0323592 336.42806147 -281.87475653 320.68138209 -254.44921875 307.203125 C-254.55314941 305.73758179 -254.55314941 305.73758179 -254.65917969 304.24243164 C-256.46919607 277.2388711 -257.58794773 248.86634143 -252.44921875 222.203125 C-252.25054199 221.14496582 -252.05186523 220.08680664 -251.84716797 218.99658203 C-247.44527073 196.14958129 -240.70265644 174.11586561 -230.44921875 153.203125 C-230.0109375 152.3073877 -229.57265625 151.41165039 -229.12109375 150.48876953 C-220.02531491 132.09418107 -209.39737154 115.12632325 -196.44921875 99.203125 C-195.80944092 98.40890137 -195.80944092 98.40890137 -195.15673828 97.59863281 C-183.19774992 82.85756447 -169.68310527 68.57922155 -154.44921875 57.203125 C-153.63155029 56.57881592 -153.63155029 56.57881592 -152.79736328 55.94189453 C-109.40458702 22.8235383 -55.16114908 0.25923642 0 0 Z M225.55078125 227.203125 C223.98142531 230.34183688 224.19877022 232.74168322 224.55078125 236.203125 C226.54603048 239.13364731 227.9791461 240.84834003 231.5234375 241.6484375 C235.08986899 241.84842431 237.1491233 241.51209266 239.98828125 239.328125 C242.58551718 235.79588413 243.06885575 233.60675823 242.55078125 229.203125 C240.14158288 226.0144801 238.37520699 224.50132154 234.61328125 223.140625 C230.54132618 223.22372612 228.66557018 224.66783169 225.55078125 227.203125 Z M-268.1796875 341.91015625 C-272.63776596 346.41427338 -275.74901497 350.8691124 -277.57421875 356.953125 C-277.67678011 360.22331584 -277.67678011 360.22331584 -276.07421875 362.890625 C-265.32859974 372.35700365 -248.93371426 371.35640629 -235.44921875 371.203125 C-235.73120117 370.36765137 -236.01318359 369.53217773 -236.30371094 368.67138672 C-237.37235137 365.5000365 -238.43806131 362.32773012 -239.50195312 359.15478516 C-239.95850819 357.79503116 -240.41614913 356.43564115 -240.875 355.07666016 C-243.98961034 345.848944 -246.86050014 336.59317999 -249.44921875 327.203125 C-254.75747638 327.203125 -264.30013377 338.36051732 -268.1796875 341.91015625 Z " fill="#1E3C58" transform="translate(350.44921875,-0.203125)"/>
<path d="M0 0 C4.1348366 1.5311331 7.92483621 3.51619471 11.75 5.6875 C12.43336426 6.07341309 13.11672852 6.45932617 13.82080078 6.85693359 C21.32317098 11.12877499 28.70190465 15.60626149 36.09277344 20.06713867 C43.67807776 24.63517498 51.31848055 29.09594426 59 33.5 C76.18188163 43.35837174 93.1809192 53.53405111 110 64 C106.63814972 71.13558918 102.78836599 77.71748633 98.375 84.25 C97.76180908 85.16241455 97.14861816 86.0748291 96.5168457 87.01489258 C89.40751968 97.49009351 81.75059458 107.33371895 73.1640625 116.6484375 C71.72038883 118.21719481 70.29827663 119.80606886 68.8984375 121.4140625 C58.79930123 132.98216404 47.2633336 142.80929766 35 152 C34.42636719 152.43054688 33.85273437 152.86109375 33.26171875 153.3046875 C24.52660771 159.81165509 15.49298513 165.66114343 6 171 C4.84201904 171.65186279 4.84201904 171.65186279 3.66064453 172.31689453 C-36.3433357 194.58527585 -80.4139313 205.48249975 -126.0625 205.3125 C-127.10280365 205.31034485 -128.1431073 205.3081897 -129.2149353 205.30596924 C-144.33617447 205.25567219 -159.12370069 204.96779371 -174 202 C-175.53213135 201.70198486 -175.53213135 201.70198486 -177.09521484 201.39794922 C-220.52921177 192.71375184 -261.93618864 174.57461285 -296 146 C-297.23934808 144.99319992 -298.47895128 143.98671384 -299.71875 142.98046875 C-301.02167754 141.90466746 -302.32376354 140.82784613 -303.625 139.75 C-304.25422363 139.24218994 -304.88344727 138.73437988 -305.53173828 138.21118164 C-307.2890625 136.734375 -307.2890625 136.734375 -310 134 C-310 130 -310 130 -308.21875 127.984375 C-292.77774312 115.2943521 -275.7162313 104.24223893 -258 95 C-257.05133057 94.49895752 -257.05133057 94.49895752 -256.08349609 93.98779297 C-236.97494025 83.94705444 -216.92272568 75.78155623 -195.9375 70.625 C-195.27153809 70.45709961 -194.60557617 70.28919922 -193.91943359 70.11621094 C-185.27723015 68.11704022 -178.27195692 68.78737719 -170 71.875 C-158.31628108 76.11440495 -147.41106361 77.57963782 -135 78 C-134.2383252 78.02868164 -133.47665039 78.05736328 -132.69189453 78.08691406 C-100.23028837 79.16965288 -67.85494534 70.05803187 -42 50 C-41.07316406 49.29359375 -40.14632813 48.5871875 -39.19140625 47.859375 C-22.36050836 34.5856456 -10.11355726 18.80715948 0 0 Z " fill="#1D3C58" transform="translate(490,331)"/>
<path d="M0 0 C-1.29955858 4.21856709 -2.92569674 8.16230888 -4.76635742 12.16235352 C-24.03726386 54.07263988 -26.80288068 101.99781339 -11.07275391 145.56835938 C-6.52463787 157.46521252 -1.07995006 169.38007491 6 180 C13.00107361 179.40246818 19.48864019 178.00916056 26.265625 176.18359375 C27.3514537 175.89581558 28.43728241 175.60803741 29.55601501 175.3115387 C33.12303624 174.36210395 36.68676485 173.40104102 40.25 172.4375 C41.48295807 172.10564697 42.71591614 171.77379395 43.98623657 171.43188477 C93.31523108 158.12996916 142.36174883 143.26269211 190.18725586 125.23510742 C191.29077393 124.8197876 192.39429199 124.40446777 193.53125 123.9765625 C194.47548828 123.61643066 195.41972656 123.25629883 196.39257812 122.88525391 C198.91930702 122.02739632 201.37411411 121.4580448 204 121 C203.9175 119.9275 203.835 118.855 203.75 117.75 C204 114 204 114 205.875 111.625 C209.67114207 108.72206783 212.21870845 108.5948058 217 109 C219.73046875 111.01953125 219.73046875 111.01953125 222 113 C225.9150574 111.32919931 229.8294226 109.65679024 233.74316406 107.98291016 C235.07370562 107.41411173 236.40443285 106.84574742 237.73535156 106.27783203 C239.65218713 105.45981028 241.56834188 104.64021174 243.484375 103.8203125 C245.21252441 103.08192139 245.21252441 103.08192139 246.97558594 102.32861328 C249.35913959 101.28152747 251.68860743 100.19537685 254 99 C253.505 98.29875 253.01 97.5975 252.5 96.875 C250.71977358 93.46289936 250.46753609 91.80331361 251 88 C251.66675839 86.76823752 252.37811367 85.55989086 253.125 84.375 C254.053125 82.704375 254.053125 82.704375 255 81 C253.49758353 76.24059676 249.36906057 71.97851109 246.36914062 68.04492188 C245.16894293 66.41744685 244.07566968 64.71233297 243 63 C244 60 244 60 246.37890625 58.71875 C255.98274817 55.0421872 266.33067916 51.78282674 276.71875 52.12109375 C280.48305832 51.98217285 281.43186179 51.39368391 284.125 48.875 C294.56715117 40.07503328 306.97147325 36.60249297 320.375 36.625 C321.33237061 36.62588623 322.28974121 36.62677246 323.27612305 36.62768555 C332.56250788 36.77926545 341.091966 38.48864414 350 41 C351.00417969 41.27328125 352.00835938 41.5465625 353.04296875 41.828125 C358.67413964 43.51120946 358.67413964 43.51120946 361 47 C360.74270949 62.79120499 349.83559236 82.84755592 339.296875 93.79296875 C332.10108139 100.70729425 320.54926653 110 310 110 C309.79375 110.85722656 309.5875 111.71445312 309.375 112.59765625 C307.65100271 116.86357 305.27702228 119.28880473 302 122.4375 C301.4227417 123.00299561 300.8454834 123.56849121 300.25073242 124.15112305 C287.91531149 136 287.91531149 136 283 136 C282.03857983 133.79296628 281.08080463 131.58446467 280.125 129.375 C279.85558594 128.75753906 279.58617187 128.14007813 279.30859375 127.50390625 C277.6757334 123.72044933 276.24482937 119.92785967 275 116 C274.19175781 115.91363281 273.38351562 115.82726562 272.55078125 115.73828125 C271.48214844 115.59777344 270.41351562 115.45726562 269.3125 115.3125 C267.72888672 115.12107422 267.72888672 115.12107422 266.11328125 114.92578125 C262.28629272 113.78776835 260.58982905 111.97421927 258 109 C256.65035156 109.85658203 256.65035156 109.85658203 255.2734375 110.73046875 C229.08972489 127.2675504 202.13097977 142.45613331 174.609375 156.64453125 C172.22955039 157.88075751 169.8621241 159.13660829 167.5 160.40625 C126.39370353 182.47417999 83.35972403 200.87083891 40 218 C52.71004304 231.18078537 68.77192703 238.96204765 85 247 C85 247.33 85 247.66 85 248 C71.35172665 247.79292275 58.49629742 245.34481177 45.75390625 240.37890625 C42.62268533 239.22872833 40.20787454 238.63687861 36.9375 238.3125 C30.28985896 237.24962331 24.959764 234.0634922 19.1875 230.77734375 C14.7618104 228.21486527 14.7618104 228.21486527 9.89428711 228.8293457 C8.60224752 229.26927535 7.31346408 229.71883607 6.02734375 230.17578125 C4.57373178 230.67407608 3.12011843 231.17236691 1.66650391 231.6706543 C0.89735657 231.93808441 0.12820923 232.20551453 -0.66424561 232.48104858 C-4.76089405 233.90131666 -8.8704554 235.28303531 -12.98046875 236.6640625 C-13.82236755 236.94712753 -14.66426636 237.23019257 -15.53167725 237.52183533 C-85.54859377 260.95824716 -179.76698494 287.83125165 -250 254 C-257.63152809 249.64499609 -265.708202 243.45809207 -269 235 C-270.34137597 224.99127161 -268.62958948 217.33411391 -263 209 C-260.20878361 205.43787623 -257.17965562 202.2159649 -254 199 C-252.89205078 197.80117188 -252.89205078 197.80117188 -251.76171875 196.578125 C-234.71750916 178.58860631 -211.98212718 166.14663132 -190.5 154.25 C-189.86953766 153.89957642 -189.23907532 153.54915283 -188.58950806 153.18811035 C-186.78192702 152.18656685 -184.97011923 151.19322656 -183.15625 150.203125 C-181.59100586 149.34702637 -181.59100586 149.34702637 -179.99414062 148.47363281 C-177.04537529 147.02233246 -174.13936429 145.96009685 -171 145 C-170.49009907 147.01835785 -169.99255336 149.03983875 -169.5 151.0625 C-169.2215625 152.18785156 -168.943125 153.31320312 -168.65625 154.47265625 C-167.96410233 158.19295 -167.54681358 161.23371283 -168 165 C-170.08984375 167.37109375 -170.08984375 167.37109375 -172.9375 169.4375 C-173.94039063 170.19933594 -174.94328125 170.96117187 -175.9765625 171.74609375 C-176.97429687 172.48988281 -177.97203125 173.23367188 -179 174 C-186.24430627 179.84254422 -192.31938618 185.69279848 -195.1875 194.75 C-195.2864812 198.12699333 -195.2864812 198.12699333 -193 200.75 C-174.27545077 214.79341192 -140.3794054 208.19068641 -118.75 205.75 C-117.37006363 205.59650589 -117.37006363 205.59650589 -115.96224976 205.43991089 C-103.3109645 204.01121939 -90.86288078 201.9888241 -78.38305664 199.47717285 C-74.87166446 198.77406702 -71.35391587 198.10688092 -67.8359375 197.4375 C-50.77401007 194.15767188 -50.77401007 194.15767188 -33.75 190.6875 C-32.98864746 190.52830078 -32.22729492 190.36910156 -31.44287109 190.20507812 C-28.56439941 189.59255122 -25.79485384 188.93161795 -23 188 C-23.85271484 186.63681641 -23.85271484 186.63681641 -24.72265625 185.24609375 C-32.44421748 172.75444311 -38.45465013 160.42581964 -42.8125 146.375 C-43.1027002 145.44558594 -43.39290039 144.51617187 -43.69189453 143.55859375 C-47.28520629 131.46641069 -48.34468834 119.70651304 -48.25 107.125 C-48.24623352 106.46436554 -48.24246704 105.80373108 -48.23858643 105.12307739 C-47.96924359 64.80148045 -32.20286471 32.2417382 -5 3 C-4.45988281 2.41089844 -3.91976563 1.82179687 -3.36328125 1.21484375 C-2 0 -2 0 0 0 Z M307 65 C305.43064406 68.13871188 305.64798897 70.53855822 306 74 C307.99524923 76.93052231 309.42836485 78.64521503 312.97265625 79.4453125 C316.53908774 79.64529931 318.59834205 79.30896766 321.4375 77.125 C324.03473593 73.59275913 324.5180745 71.40363323 324 67 C321.59080163 63.8113551 319.82442574 62.29819654 316.0625 60.9375 C311.99054493 61.02060112 310.11478893 62.46470669 307 65 Z " fill="#FE6D3F" transform="translate(269,162)"/>
<path d="M0 0 C1.08433823 -0.00861557 2.16867645 -0.01723114 3.28587341 -0.02610779 C6.84268601 -0.04866596 10.3987041 -0.04204654 13.95556641 -0.03295898 C16.44601676 -0.03819941 18.93646513 -0.04447742 21.4269104 -0.05174255 C26.63675298 -0.06212842 31.84632211 -0.05761162 37.05615234 -0.04296875 C43.70937275 -0.02579325 50.36138907 -0.04927094 57.01456261 -0.08445835 C62.15523933 -0.10649436 67.29571119 -0.10497559 72.43642044 -0.09669304 C74.88825045 -0.09587675 77.340096 -0.10267797 79.79188156 -0.11746407 C104.35542802 -0.24289482 104.35542802 -0.24289482 113.68212891 5.53344727 C114.75849609 6.19344727 115.83486328 6.85344727 116.94384766 7.53344727 C126.11022605 15.09091222 135.45827281 25.60964749 136.97151566 37.87997818 C137.09781665 40.5125196 137.13318433 43.13077988 137.13378906 45.76635742 C137.15131226 47.2559346 137.15131226 47.2559346 137.16918945 48.77560425 C137.20263551 52.04133915 137.21349935 55.30661891 137.22119141 58.57250977 C137.2333848 60.85924431 137.24587122 63.14597731 137.25863647 65.43270874 C137.28107871 70.22234674 137.29066276 75.01182606 137.29296875 79.80151367 C137.29824126 85.90769421 137.34952372 92.01253577 137.41248512 98.1183567 C137.45356428 102.84220448 137.46261256 107.56573506 137.46308517 112.28974533 C137.46843563 114.53901192 137.48515117 116.78828382 137.51393509 119.03737259 C137.71802556 136.43859588 135.68293907 148.35341306 123.13916016 161.34594727 C113.29837602 170.10721772 103.56815336 173.99535648 90.55957031 173.9375 C89.47231155 173.94436325 88.3850528 173.9512265 87.2648468 173.95829773 C83.68766036 173.97652784 80.11091413 173.97273317 76.53369141 173.96704102 C74.03559223 173.97160485 71.5374943 173.97691103 69.03939819 173.98292542 C63.14059864 173.99299019 57.24195466 173.98690611 51.34316194 173.97567183 C46.65395943 173.96849418 41.96503623 173.97927239 37.27587891 174 C30.78916106 174.02832566 24.30273408 174.03694268 17.81595993 174.0297718 C15.35131464 174.02961889 12.88666064 174.03563856 10.42204666 174.04806328 C6.96885744 174.06301894 3.51663647 174.05226112 0.06347656 174.03515625 C-1.44869194 174.0496582 -1.44869194 174.0496582 -2.9914093 174.06445312 C-15.68671279 173.93344646 -25.06354765 168.06658066 -34.32177734 159.72875977 C-43.8176578 149.82925128 -47.47040525 137.83641729 -47.46313477 124.45800781 C-47.46649338 123.56450623 -47.46985199 122.67100464 -47.47331238 121.75042725 C-47.48278365 118.80699255 -47.4847636 115.86361498 -47.48583984 112.92016602 C-47.48905519 110.86521888 -47.49241948 108.81027198 -47.4959259 106.75532532 C-47.50190769 102.45064768 -47.50376679 98.14599009 -47.50317383 93.84130859 C-47.50307229 88.34043227 -47.51672051 82.83968524 -47.53394604 77.33883953 C-47.54509517 73.0947664 -47.54709214 68.85072423 -47.5465641 64.60663795 C-47.54773998 62.57936978 -47.5521396 60.5521007 -47.55989647 58.52484703 C-47.56975476 55.68216414 -47.5667953 52.83975819 -47.56079102 49.99707031 C-47.56641052 49.16923538 -47.57203003 48.34140045 -47.57781982 47.48847961 C-47.5062561 34.07453378 -42.41528095 23.17667638 -33.25537109 13.34204102 C-23.49866091 4.23446679 -13.28416015 -0.08653263 0 0 Z M7.68212891 52.53344727 C6.30242815 55.29284877 6.53197869 57.54386916 6.50512695 60.63208008 C6.49229172 61.91391174 6.47945648 63.19574341 6.4662323 64.51641846 C6.45806386 65.92313247 6.45062032 67.32985084 6.44384766 68.73657227 C6.43977213 69.44436577 6.4356966 70.15215927 6.43149757 70.88140106 C6.41063327 74.62950855 6.39633459 78.37757941 6.38696289 82.12573242 C6.3759127 85.99056244 6.34153081 89.85481442 6.30179119 93.71944046 C6.27559539 96.69638104 6.26726836 99.67318471 6.26368141 102.65023041 C6.25882106 104.07434736 6.24722264 105.49845842 6.22864342 106.92246246 C6.20419949 108.92057846 6.20764193 110.91897592 6.2121582 112.91723633 C6.20629196 114.05259827 6.20042572 115.18796021 6.19438171 116.35772705 C6.90295026 120.97121432 8.86204076 124.1763679 12.61811829 126.97694397 C19.02137352 129.77422956 24.79215391 130.10218348 31.72509766 130.02954102 C32.85232742 130.03099625 33.97955719 130.03245148 35.14094543 130.03395081 C37.51008708 130.03229904 39.87924027 130.02081937 42.24829102 130 C45.8692785 129.97095008 49.48880833 129.97942656 53.10986328 129.99243164 C55.41911516 129.98619624 57.72836245 129.97780685 60.03759766 129.96704102 C61.11583298 129.96997665 62.1940683 129.97291229 63.30497742 129.97593689 C70.51326657 129.88555206 74.96685559 128.94702355 80.49462891 124.03344727 C83.81095574 120.24335946 83.8129744 117.35700812 83.84326172 112.48901367 C83.85286926 111.24407135 83.86247681 109.99912903 83.87237549 108.71646118 C83.87722343 107.35597924 83.88150227 105.99549517 83.88525391 104.63500977 C83.89100794 103.23880003 83.89676565 101.84259032 83.90252686 100.44638062 C83.91302739 97.51934441 83.91887629 94.59233559 83.92236328 91.6652832 C83.92784697 87.92043208 83.95187587 84.17594473 83.98033524 80.43120766 C83.99898758 77.54695589 84.00416858 74.66279132 84.00569916 71.77848434 C84.00872023 70.39821763 84.01673038 69.01795225 84.02988434 67.6377449 C84.04699759 65.7041268 84.04321214 63.77035819 84.03857422 61.83666992 C84.04221985 60.73763336 84.04586548 59.6385968 84.04962158 58.5062561 C83.49121793 53.98908492 81.62696509 51.42721122 78.36962891 48.34594727 C72.1018287 44.1188262 65.96245731 44.22611253 58.65869141 44.23266602 C57.59854828 44.22838089 56.53840515 44.22409576 55.44613647 44.21968079 C53.20872714 44.2139508 50.97129917 44.21342738 48.73388672 44.21777344 C45.32568288 44.22093008 41.91835036 44.19746821 38.51025391 44.17211914 C36.33056749 44.16984557 34.15087876 44.16914292 31.97119141 44.17016602 C30.95948883 44.16095627 29.94778625 44.15174652 28.90542603 44.14225769 C20.16296112 44.19891986 13.59909047 45.54067451 7.68212891 52.53344727 Z " fill="#1D3C58" transform="translate(1861.31787109375,157.466552734375)"/>
<path d="M0 0 C0.66097779 -0.00594224 1.32195558 -0.01188449 2.00296301 -0.0180068 C4.22837995 -0.03541565 6.45358216 -0.03840015 8.67906189 -0.04138184 C10.27064984 -0.05063617 11.86223334 -0.06068521 13.45381165 -0.07147217 C17.78680221 -0.09775344 22.11973074 -0.11061772 26.45278859 -0.11949348 C29.16084012 -0.12535267 31.86887466 -0.13356208 34.57691765 -0.14250183 C43.05209433 -0.16986723 51.52723223 -0.18919007 60.00245005 -0.19690561 C69.7805614 -0.2058561 79.55811206 -0.24089442 89.33605295 -0.2989068 C96.89541865 -0.34219564 104.45462699 -0.36231726 112.01411527 -0.36498785 C116.52781836 -0.36708104 121.04099495 -0.37883113 125.55456734 -0.41462708 C129.80569869 -0.44768301 134.05591071 -0.45185567 138.30712509 -0.43434906 C139.86271445 -0.43281296 141.41835414 -0.441433 142.97381783 -0.46126556 C151.92420391 -0.568638 158.84564838 -0.15148477 165.63194275 6.28088379 C167.7530365 8.77307129 167.7530365 8.77307129 169.06944275 11.15588379 C169.52190369 11.93705566 169.97436462 12.71822754 170.4405365 13.52307129 C173.9862187 21.7304537 173.95280048 29.63332936 173.96788025 38.45666504 C173.97432238 39.83135613 173.98105174 41.2060459 173.98805237 42.58073425 C173.99997438 45.45274021 174.00373847 48.32462635 174.00254822 51.19665527 C174.00234533 54.84789067 174.02963839 58.49834516 174.06409264 62.14939594 C174.08650577 64.98672401 174.0903814 67.8238684 174.08932877 70.66127586 C174.09278603 72.65240138 174.11435407 74.64346957 174.13642883 76.63447571 C174.06490102 90.9865732 169.28456563 101.1870286 159.463974 111.57385254 C154.36958894 116.37970606 148.99639785 119.44490898 142.63194275 122.28088379 C141.29543708 122.94116768 139.96099107 123.60571508 138.63194275 124.28088379 C139.39635681 124.98471191 140.16077087 125.68854004 140.948349 126.41369629 C142.03048808 127.41097513 143.11250933 128.40838184 144.19444275 129.40588379 C144.77218445 129.9385083 145.34992615 130.47113281 145.94517517 131.01989746 C149.81319312 134.59025631 153.66395884 138.17838051 157.50547791 141.77722168 C164.08492615 147.95811179 164.08492615 147.95811179 170.81944275 153.96838379 C171.69342712 154.72828613 171.69342712 154.72828613 172.58506775 155.50354004 C173.75701818 156.52116876 174.93011431 157.53748905 176.10655212 158.54992676 C177.77128742 159.99041007 179.42091781 161.4468945 181.06944275 162.90588379 C181.60271179 163.36180908 182.13598083 163.81773437 182.68540955 164.28747559 C185.93530734 167.19156106 186.99920569 169.02913973 187.63194275 173.28088379 C180.83682685 173.38289554 174.04191083 173.45260449 167.24620056 173.50061035 C164.93785726 173.52063796 162.62956413 173.54786817 160.32139587 173.5826416 C156.98988918 173.63154973 153.65905737 173.6539419 150.32725525 173.67150879 C148.79695175 173.7024765 148.79695175 173.7024765 147.23573303 173.73406982 C125.08039528 173.74089827 107.5890143 154.83645274 92.48008728 140.66516113 C82.00378343 130.95439622 74.74403213 125.08341622 60.19444275 124.90588379 C59.03622009 124.86850098 57.87799744 124.83111816 56.68467712 124.79260254 C55.0208197 124.7752002 55.0208197 124.7752002 53.323349 124.75744629 C51.79496399 124.72771729 51.79496399 124.72771729 50.23570251 124.6973877 C47.46323532 125.04535478 47.46323532 125.04535478 45.80381775 127.42004395 C44.47372201 130.66714017 44.23380104 133.07410827 44.1905365 136.57775879 C44.16411072 137.78432129 44.13768494 138.99088379 44.11045837 140.23400879 C44.09015564 142.11346191 44.09015564 142.11346191 44.06944275 144.03088379 C43.75832944 166.1544971 43.75832944 166.1544971 37.63194275 172.28088379 C34.38869627 173.90250703 30.82834429 173.44394658 27.26475525 173.44885254 C26.43362213 173.45218094 25.60248901 173.45550934 24.74617004 173.4589386 C22.98593195 173.46400595 21.22568423 173.46634698 19.46543884 173.46618652 C16.7746847 173.4683694 14.08434287 173.48651694 11.3936615 173.50549316 C9.68402749 173.50842786 7.97439152 173.51041215 6.26475525 173.51135254 C5.46047089 173.51853806 4.65618652 173.52572357 3.82752991 173.53312683 C-3.37089534 173.50375551 -3.37089534 173.50375551 -6.36805725 171.28088379 C-9.90688847 165.38283176 -10.48984548 160.19153861 -10.5450592 153.41442871 C-10.5516304 152.74379898 -10.5582016 152.07316925 -10.56497192 151.38221741 C-10.58459156 149.17526109 -10.59634129 146.96837241 -10.6063385 144.76135254 C-10.61041403 144.00364374 -10.61448956 143.24593494 -10.61868858 142.46526527 C-10.63949984 138.45548404 -10.6538235 134.44573653 -10.66322327 130.43591309 C-10.67428473 126.31018993 -10.7086953 122.18500651 -10.74839497 118.05947399 C-10.77462301 114.87228947 -10.78292048 111.68523253 -10.78650475 108.4979496 C-10.79135378 106.97780011 -10.80291949 105.45765568 -10.82154274 103.93761253 C-10.99554998 88.7955521 -10.99554998 88.7955521 -6.36805725 82.28088379 C-3.44592766 80.4184497 -1.19836846 80.03077249 2.2351532 80.02932739 C3.15464752 80.02394455 4.07414185 80.01856171 5.02149963 80.01301575 C6.02313141 80.01713974 7.02476318 80.02126373 8.05674744 80.0255127 C9.11737396 80.02189224 10.17800049 80.01827179 11.27076721 80.01454163 C13.57446685 80.00764731 15.87818283 80.00514225 18.1818924 80.0064888 C21.8306585 80.00745338 25.47912948 79.9945188 29.12785339 79.97750854 C39.50223999 79.93122016 49.8765971 79.90663524 60.25108337 79.90002441 C66.59707866 79.89500535 72.94276689 79.87073271 79.28865814 79.83469772 C81.70469061 79.82490696 84.12076535 79.8225638 86.53681183 79.82786942 C89.92139398 79.83495197 93.30506391 79.81763109 96.68955994 79.79504395 C98.17986221 79.80730263 98.17986221 79.80730263 99.70027161 79.81980896 C106.76039844 79.73620089 112.4462787 78.39960558 117.60704041 73.34729004 C118.85852749 70.82404404 119.01950554 69.03130835 119.03038025 66.21838379 C119.03424744 65.25674316 119.03811462 64.29510254 119.042099 63.30432129 C119.03049744 62.30658691 119.01889587 61.30885254 119.00694275 60.28088379 C119.02434509 58.78428223 119.02434509 58.78428223 119.042099 57.25744629 C119.03823181 56.29580566 119.03436462 55.33416504 119.03038025 54.34338379 C119.02530457 53.03047363 119.02530457 53.03047363 119.02012634 51.69104004 C118.54182692 48.72137218 117.68427597 47.46506603 115.63194275 45.28088379 C113.45837413 44.6939919 113.45837413 44.6939919 110.99040222 44.80227661 C110.03718079 44.79703476 109.08395935 44.79179291 108.10185242 44.78639221 C107.05765137 44.80084885 106.01345032 44.81530548 104.93760681 44.8302002 C103.83650574 44.82950027 102.73540466 44.82880035 101.60093689 44.82807922 C99.20606448 44.8287975 96.81118193 44.83854283 94.41637421 44.85615921 C90.62500099 44.88260369 86.83446345 44.88275339 83.04301453 44.87545776 C73.62318602 44.86175116 64.20353996 44.88203866 54.78379822 44.92327881 C46.83165435 44.9580424 38.88027305 44.96970814 30.92801666 44.94657516 C28.41622008 44.94549291 25.90439089 44.95595571 23.39269257 44.97819901 C19.87585037 45.00923417 16.36077073 45.00370085 12.84385681 44.99035645 C11.80775269 45.00886154 10.77164856 45.02736664 9.70414734 45.0464325 C3.64631221 44.97808798 0.29431909 44.11201616 -4.08220291 39.82211876 C-5.8171075 37.74264868 -6.85955981 35.77566308 -7.74305725 33.21838379 C-8.03954163 32.40240723 -8.336026 31.58643066 -8.64149475 30.74572754 C-11.28590367 21.77464137 -11.95983 11.06077272 -8.36805725 2.28088379 C-5.58389413 -0.50327933 -3.90288596 0.01953709 0 0 Z " fill="#1D3C58" transform="translate(982.3680572509766,157.7191162109375)"/>
<path d="M0 0 C0.99252504 -0.00785502 0.99252504 -0.00785502 2.00510108 -0.01586872 C4.23286169 -0.03092714 6.4603938 -0.03157515 8.6882019 -0.03224182 C10.28141165 -0.03985971 11.8746177 -0.04828656 13.46781921 -0.0574646 C17.8048835 -0.07946054 22.14187726 -0.08821598 26.47899103 -0.09329104 C29.18904492 -0.09693038 31.89908022 -0.1031684 34.60912704 -0.11029243 C44.06534387 -0.13481025 53.52150571 -0.14784264 62.97775269 -0.15138245 C71.78804468 -0.15501356 80.5979874 -0.18487236 89.40817273 -0.22678703 C96.97261883 -0.26151136 104.53694939 -0.2769313 112.10147464 -0.27762848 C116.61898502 -0.27842095 121.13614031 -0.28714442 125.65356827 -0.31562614 C129.90708151 -0.34184169 134.15994635 -0.34399282 138.41350365 -0.3279705 C139.97111489 -0.32615842 141.52876368 -0.33282509 143.08629417 -0.34878922 C158.36317674 -0.49576744 158.36317674 -0.49576744 164.62521362 5.27415466 C166.61349487 7.37962341 166.61349487 7.37962341 167.93771362 9.46165466 C168.38759644 10.13583435 168.83747925 10.81001404 169.30099487 11.50462341 C173.56863271 20.43015506 174.08100669 28.88711645 174.05880737 38.68040466 C174.06338144 40.05463414 174.0686906 41.42886134 174.07469177 42.80308533 C174.08356961 45.66739767 174.08126051 48.53143039 174.07125854 51.39573669 C174.05976269 55.04033034 174.08001572 58.68395588 174.10917568 62.32842255 C174.12764417 65.16144287 174.1272245 67.99423553 174.12153816 70.82730103 C174.12131328 72.81568033 174.13810228 74.80403863 174.15534973 76.79234314 C174.05393668 90.07064869 169.32533952 100.88892058 160.37130737 110.75852966 C150.55816146 120.14638675 140.47480717 124.4354198 127.02706909 124.40013123 C125.7457309 124.40293343 125.7457309 124.40293343 124.43850708 124.40579224 C122.58934708 124.4097863 120.74018218 124.41187016 118.89101791 124.41225433 C114.9626773 124.41567678 111.03450121 124.43704021 107.10621834 124.4574852 C99.79563222 124.49550276 92.4852264 124.5267619 85.17453003 124.52464294 C80.08515401 124.52385788 74.99638656 124.54712423 69.90716934 124.58652496 C67.96708026 124.5970114 66.02692117 124.59848964 64.0868187 124.59087372 C61.37872574 124.5812979 58.67249364 124.60234234 55.96456909 124.63059998 C55.16034515 124.62040329 54.35612122 124.6102066 53.52752686 124.59970093 C51.0399596 124.58999727 51.0399596 124.58999727 47.62521362 125.27415466 C44.54430989 128.90583462 44.24161561 131.88960123 44.18380737 136.57102966 C44.15738159 137.77759216 44.13095581 138.98415466 44.10372925 140.22727966 C44.08342651 142.10673279 44.08342651 142.10673279 44.06271362 144.02415466 C43.75160031 166.14776798 43.75160031 166.14776798 37.62521362 172.27415466 C34.38196715 173.8957779 30.82161517 173.43721746 27.25802612 173.44212341 C26.42689301 173.44545181 25.59575989 173.44878021 24.73944092 173.45220947 C22.97920282 173.45727682 21.2189551 173.45961786 19.45870972 173.4594574 C16.76795557 173.46164027 14.07761374 173.47978781 11.38693237 173.49876404 C9.67729836 173.50169873 7.9676624 173.50368302 6.25802612 173.50462341 C5.45374176 173.51180893 4.6494574 173.51899445 3.82080078 173.52639771 C-3.37762446 173.49702638 -3.37762446 173.49702638 -6.37478638 171.27415466 C-9.89695388 165.4038755 -10.49723246 160.24499635 -10.53591919 153.49949646 C-10.54336655 152.50818222 -10.54336655 152.50818222 -10.55096436 151.49684143 C-10.5655036 149.32234128 -10.57237415 147.14791408 -10.57791138 144.97337341 C-10.58073875 144.22669718 -10.58356613 143.48002094 -10.58647919 142.71071815 C-10.60143863 138.75928522 -10.61068853 134.80788849 -10.61502075 130.85643005 C-10.62050041 126.79133754 -10.64452682 122.72658081 -10.67299271 118.66159344 C-10.69169007 115.52073217 -10.69682845 112.37995067 -10.69835663 109.23903847 C-10.70136771 107.74123614 -10.70934362 106.24343469 -10.72254181 104.74568748 C-10.84740147 89.48748627 -10.84740147 89.48748627 -7.37478638 83.27415466 C-2.73583439 79.290704 2.37290767 79.86047076 8.1635437 79.90525818 C9.75470253 79.89960846 9.75470253 79.89960846 11.37800598 79.8938446 C13.67895945 79.88741423 15.97993947 79.88774019 18.28089333 79.89402962 C21.92560697 79.90313804 25.56980595 79.89291763 29.2144928 79.87741089 C39.57608229 79.83730785 49.93763171 79.83610715 60.29928589 79.83836365 C66.63993078 79.8384148 72.9802986 79.81922112 79.32086754 79.78903008 C82.90604495 79.77821536 86.49069115 79.79033061 90.07585144 79.80285645 C92.28347292 79.79394962 94.49109009 79.7838744 96.69869995 79.77244568 C97.69066376 79.78218918 98.68262756 79.79193268 99.70465088 79.80197144 C106.76754591 79.72918373 112.4382246 78.38724705 117.60470581 73.34056091 C118.85715084 70.80450953 118.9834915 69.03562749 118.95333862 66.21165466 C118.94560425 64.76919373 118.94560425 64.76919373 118.93771362 63.29759216 C118.90677612 61.8009906 118.90677612 61.8009906 118.87521362 60.27415466 C118.86747925 58.7775531 118.86747925 58.7775531 118.85958862 57.25071716 C118.81472254 53.06695481 118.69846425 49.32541839 117.62521362 45.27415466 C116.73814303 45.2747202 116.73814303 45.2747202 115.83315182 45.27529716 C101.42672087 45.28242211 87.02062879 45.25644658 72.61433315 45.19387627 C65.64742153 45.16441082 58.68081434 45.14604522 51.71383667 45.15403748 C44.98975675 45.16171964 38.26644751 45.13816902 31.54246712 45.09560013 C28.97768588 45.08446141 26.41283717 45.08377553 23.84805107 45.09373093 C20.25407233 45.1058928 16.66212943 45.08083746 13.06832886 45.04710388 C12.00881012 45.0593248 10.94929138 45.07154572 9.85766602 45.08413696 C3.75090221 44.98090534 0.31377558 44.14897065 -4.0970602 39.81315804 C-5.82423798 37.73279647 -6.867628 35.76505804 -7.74978638 33.21165466 C-8.04627075 32.3956781 -8.34275513 31.57970154 -8.64822388 30.73899841 C-11.29263279 21.76791225 -11.96655912 11.0540436 -8.37478638 2.27415466 C-5.58879076 -0.51184095 -3.90527621 0.01526455 0 0 Z " fill="#1D3C58" transform="translate(1409.3747863769531,157.72584533691406)"/>
<path d="M0 0 C1.29148956 -0.00137466 2.58297913 -0.00274933 3.91360474 -0.00416565 C5.34782433 -0.00062649 6.78204369 0.00300832 8.21626282 0.00672913 C9.7240753 0.00701115 11.23188792 0.00685297 12.73970032 0.00628662 C16.83651144 0.00599924 20.93329339 0.01188646 25.03009772 0.01886058 C29.31023496 0.02510391 33.59037283 0.02569869 37.87051392 0.02688599 C45.97713538 0.02999641 54.0837434 0.03820591 62.19035894 0.04823548 C71.41878796 0.05940558 80.64721762 0.06490933 89.87565172 0.06993091 C108.86069704 0.08038875 127.84572982 0.09798262 146.83076477 0.12025452 C150.21103809 6.67640879 150.21103809 6.67640879 150.26435852 10.44056702 C150.27563782 11.21771057 150.28691711 11.99485413 150.29853821 12.79554749 C150.28854797 13.60395081 150.27855774 14.41235413 150.26826477 15.24525452 C150.26214172 16.08330627 150.25601868 16.92135803 150.24971008 17.7848053 C150.04203631 26.09015865 148.34337749 33.19429714 143.83076477 40.24525452 C140.56518438 43.30673613 137.88008799 44.37073786 133.42169189 44.36508179 C132.1073391 44.37098831 132.1073391 44.37098831 130.76643372 44.37701416 C129.81305115 44.37131912 128.85966858 44.36562408 127.87739563 44.35975647 C126.86725906 44.36177063 125.8571225 44.36378479 124.81637573 44.36585999 C122.62397472 44.3694046 120.43156349 44.3686395 118.23916435 44.36408424 C114.7723902 44.35849836 111.3059515 44.36763696 107.83920288 44.38128662 C97.98310332 44.41845353 88.12711795 44.43692449 78.27095032 44.42567444 C72.24263423 44.41983623 66.21479084 44.43801941 60.18657112 44.47156334 C57.88641747 44.47953749 55.58621258 44.47821328 53.28606987 44.46753883 C50.07509973 44.45327519 46.86562601 44.46941635 43.65473938 44.49256897 C42.69933258 44.48080124 41.74392578 44.46903351 40.75956726 44.45690918 C35.69525751 44.4117864 35.69525751 44.4117864 31.74201965 47.22735596 C30.66852296 50.63531249 30.4425906 53.45668167 30.42671204 57.03431702 C30.41641716 58.04748993 30.41641716 58.04748993 30.40591431 59.08113098 C30.38768748 61.30272233 30.3914771 63.52360481 30.39717102 65.74525452 C30.39260763 67.29554981 30.38730159 68.84584308 30.38128662 70.39613342 C30.37236397 73.64084609 30.37476936 76.8853125 30.38471985 80.13002014 C30.39621639 84.28301991 30.37598412 88.43517027 30.34680271 92.58805847 C30.32843688 95.7880338 30.32873373 98.98780562 30.33444023 102.18782043 C30.33459336 103.71879774 30.32855598 105.24978891 30.31614876 106.78071594 C30.30122987 108.92308028 30.31191917 111.06387598 30.32905579 113.20619202 C30.32922195 114.42355042 30.32938812 115.64090881 30.32955933 116.89515686 C30.95149629 120.89712343 31.8428881 122.39050778 34.83076477 125.12025452 C40.62955732 128.42315167 46.53245553 128.54385763 53.05464172 128.489151 C54.04585526 128.49291748 55.03706879 128.49668396 56.05831909 128.50056458 C58.19716766 128.50697098 60.33604472 128.50669165 62.47489357 128.50037956 C65.85804863 128.49124294 69.24065273 128.50152059 72.6237793 128.51699829 C82.23744408 128.55704283 91.85106363 128.55829184 101.46479797 128.55604553 C107.35501837 128.55599456 113.24493837 128.57509076 119.13507652 128.6053791 C122.47176597 128.61623511 125.80789025 128.60405989 129.14456177 128.59155273 C131.18100046 128.60045167 133.21743447 128.61052414 135.25386047 128.6219635 C136.18428162 128.61222 137.11470276 128.6024765 138.07331848 128.59243774 C144.32960674 128.66286334 144.32960674 128.66286334 146.85510254 130.96780396 C150.40660453 138.80292579 151.5165816 147.62629787 148.95576477 155.97181702 C145.0052195 164.57464915 139.32988746 168.93187753 130.64569283 172.28759766 C125.81367644 173.71691006 121.10487134 173.67666561 116.09809875 173.63783264 C114.40584167 173.64834656 114.40584167 173.64834656 112.67939758 173.65907288 C108.97829525 173.67656943 105.27796761 173.6650598 101.57685852 173.65150452 C98.98954116 173.65420162 96.40222479 173.65808585 93.81491089 173.6631012 C88.40415305 173.66898484 82.99368251 173.66085494 77.58296204 173.64173889 C71.3479772 173.61996363 65.11351555 173.62703582 58.87854332 173.64904451 C52.85247924 173.66945549 46.82666894 173.66720446 40.80056953 173.65551758 C38.24858081 173.65285661 35.69657866 173.65609776 33.14460564 173.66543579 C29.57405996 173.67563606 26.00450823 173.66005033 22.43403625 173.63783264 C20.86508354 173.64997803 20.86508354 173.64997803 19.26443481 173.66236877 C7.44306513 173.52664001 -2.24798338 167.90671272 -10.79423523 159.93275452 C-20.64793661 149.52907911 -24.64638371 138.29839036 -24.55741882 124.16957092 C-24.56267578 123.12424698 -24.56793274 122.07892303 -24.573349 121.00192261 C-24.58646228 117.57506494 -24.5778402 114.14867874 -24.56767273 110.72181702 C-24.56969625 108.32104911 -24.57261001 105.92028181 -24.57637024 103.51951599 C-24.58078214 98.49802271 -24.5744001 93.47669 -24.56034851 88.45521545 C-24.54327609 82.04441824 -24.55309308 75.63399842 -24.5710659 69.2232151 C-24.58195012 64.26785991 -24.57843583 59.31259293 -24.57068253 54.35723495 C-24.56869237 51.9947289 -24.57109778 49.63221463 -24.57812119 47.26971817 C-24.65084293 15.93020339 -24.65084293 15.93020339 -15.16923523 5.12025452 C-10.46136588 1.02645508 -6.13596756 -0.00502536 0 0 Z " fill="#1D3C58" transform="translate(793.1692352294922,157.87974548339844)"/>
<path d="M0 0 C21.72224173 -0.09335925 43.44445048 -0.16393791 65.166852 -0.20724869 C75.25249747 -0.22789138 85.33801842 -0.25604451 95.42358398 -0.30175781 C104.21213381 -0.34157341 113.00059349 -0.36742039 121.789231 -0.37635398 C126.44463106 -0.3815777 131.09977317 -0.39389055 135.75509071 -0.42292023 C140.1340355 -0.45000608 144.5126153 -0.45845893 148.89163589 -0.45243073 C150.50134068 -0.45353404 152.11105726 -0.46152866 153.72068977 -0.4768219 C155.91400286 -0.49664407 158.10592726 -0.49196914 160.29927063 -0.48101807 C162.1423957 -0.48654882 162.1423957 -0.48654882 164.02275562 -0.49219131 C167 0 167 0 168.8768034 1.88187027 C173.3691406 10.35354208 171.51304986 22.42332074 169.0546875 31.26171875 C166.9535398 36.71692073 163.84634274 40.76910484 159 44 C156.94432068 44.25828552 156.94432068 44.25828552 154.56030273 44.27124023 C153.66605087 44.28142685 152.77179901 44.29161346 151.85044861 44.30210876 C150.88788651 44.30424881 149.9253244 44.30638885 148.93359375 44.30859375 C146.9016897 44.33374254 144.86978873 44.35914072 142.83789062 44.38476562 C139.62932047 44.41358291 136.42080347 44.43759732 133.2121582 44.45629883 C130.11902867 44.47786282 127.02651309 44.51728343 123.93359375 44.55859375 C122.96900742 44.55870956 122.00442108 44.55882538 121.01060486 44.5589447 C119.67395531 44.57895287 119.67395531 44.57895287 118.31030273 44.59936523 C117.13140724 44.60697121 117.13140724 44.60697121 115.92869568 44.61473083 C114.97399132 44.80543907 114.97399132 44.80543907 114 45 C111.91499166 48.12751252 111.74836694 48.83114083 111.73498535 52.38684082 C111.72671219 53.28379669 111.71843903 54.18075256 111.70991516 55.10488892 C111.71089706 56.08670135 111.71187897 57.06851379 111.71289062 58.08007812 C111.70605759 59.1162326 111.69922455 60.15238708 111.69218445 61.21994019 C111.6785793 63.47398198 111.66953706 65.72805479 111.66447449 67.98213196 C111.65619258 71.55602768 111.63568998 75.12966699 111.61193848 78.70349121 C111.56364694 86.30228938 111.53079626 93.90111347 111.5 101.5 C111.46427583 110.27924995 111.42216124 119.05837641 111.36405945 127.83750916 C111.34409013 131.34648318 111.33568855 134.85536107 111.32775879 138.36437988 C111.31477336 140.53784524 111.30125116 142.71130748 111.28710938 144.88476562 C111.28809128 145.85038422 111.28907318 146.81600281 111.29008484 147.81088257 C111.14762626 163.64433396 111.14762626 163.64433396 107 170.125 C103.22091937 173.66788809 99.59960764 173.17709548 94.66796875 173.203125 C93.42482658 173.21167511 93.42482658 173.21167511 92.15657043 173.22039795 C90.40053587 173.22985248 88.64448353 173.23638373 86.88842773 173.24023438 C84.20850404 173.24992406 81.52935247 173.2809359 78.84960938 173.3125 C77.14323372 173.31903173 75.43685258 173.32428154 73.73046875 173.328125 C72.93134567 173.3404718 72.1322226 173.3528186 71.30888367 173.36553955 C66.78697296 173.34754021 63.42313274 173.26354522 60 170 C56.84233749 163.42799154 56.57154081 156.9286046 56.61523438 149.76049805 C56.6098616 148.67320908 56.60448883 147.5859201 56.59895325 146.46568298 C56.58921619 144.12005572 56.58621869 141.77439261 56.58930969 139.42874718 C56.59380341 135.71760821 56.5797454 132.00694203 56.56091309 128.29585266 C56.52110582 119.75670192 56.50850524 111.21756277 56.49738312 102.6783371 C56.48603264 94.20994785 56.46308 85.7417428 56.41999817 77.27344704 C56.40640172 73.61504183 56.41060214 69.95692835 56.41540527 66.29850769 C56.40606883 64.06317773 56.39590106 61.82785102 56.38476562 59.5925293 C56.39091385 58.57376709 56.39706207 57.55500488 56.40339661 56.50537109 C56.39519394 55.57049362 56.38699127 54.63561615 56.37854004 53.67240906 C56.37782753 52.86185908 56.37711502 52.05130911 56.37638092 51.21619701 C55.90570972 48.44480228 54.88928205 47.05211018 53 45 C50.97987667 44.41477128 50.97987667 44.41477128 48.71557617 44.51757812 C47.42359566 44.50736633 47.42359566 44.50736633 46.10551453 44.49694824 C44.71330437 44.51392761 44.71330437 44.51392761 43.29296875 44.53125 C42.33481766 44.52420044 41.37666656 44.51715088 40.38948059 44.5098877 C36.2884042 44.48035909 32.18779956 44.49700721 28.08666992 44.50927734 C25.09264842 44.51166207 22.09939489 44.49071191 19.10546875 44.46875 C18.18340134 44.48006958 17.26133392 44.49138916 16.31132507 44.50305176 C10.55910073 44.45808002 7.41891187 43.75983184 3 40 C1.609375 38.10546875 1.609375 38.10546875 0.75 36.1875 C0.45609375 35.56230469 0.1621875 34.93710938 -0.140625 34.29296875 C-2.55151127 27.86028583 -3.33921116 22.23816041 -3.3125 15.4375 C-3.32861328 14.61314453 -3.34472656 13.78878906 -3.36132812 12.93945312 C-3.36197266 12.13314453 -3.36261719 11.32683594 -3.36328125 10.49609375 C-3.36626221 9.77607178 -3.36924316 9.0560498 -3.37231445 8.31420898 C-2.87136495 5.20043825 -1.44086499 2.78601376 0 0 Z " fill="#1D3C58" transform="translate(1615,158)"/>
<path d="M0 0 C6.51020197 -0.12757048 13.02007749 -0.21467172 19.53125 -0.2746582 C21.74263555 -0.29968484 23.95393937 -0.3337169 26.16503906 -0.37719727 C29.35762791 -0.43837176 32.54911613 -0.46632914 35.7421875 -0.48828125 C36.71864227 -0.51408768 37.69509705 -0.5398941 38.70114136 -0.56648254 C52.514542 -0.57203093 62.29495115 8.3189735 71.75 17.5625 C81.04239793 27.18363842 89.44974701 37.72117601 98 48 C104.48863421 41.59218508 110.5705223 34.80941848 116.5625 27.9375 C117.11550781 27.30585938 117.66851563 26.67421875 118.23828125 26.0234375 C119.51511115 24.55692334 120.78209779 23.08182018 122.04296875 21.6015625 C129.97822241 12.47250962 140.16098742 1.59492933 152.7063446 -0.43870544 C155.56982373 -0.57327171 158.3922565 -0.56401416 161.2578125 -0.48828125 C162.28687714 -0.48120651 163.31594177 -0.47413177 164.37619019 -0.46684265 C167.62656875 -0.43910641 170.87515213 -0.37640692 174.125 -0.3125 C176.34372492 -0.28739031 178.56247715 -0.26458185 180.78125 -0.24414062 C186.18810079 -0.1893486 191.5939221 -0.10593464 197 0 C197.61083984 1.86303711 197.61083984 1.86303711 198 4 C196.2265625 6.19140625 196.2265625 6.19140625 193.625 8.5625 C189.13036762 12.83833942 185.19319387 17.26843094 181.328125 22.11328125 C179.3226547 24.59992983 177.26184831 27.02306758 175.16699219 29.43432617 C169.61367878 35.85346801 164.54535997 42.56259206 159.54858398 49.42114258 C154.47268251 56.38632717 149.27475746 63.25119266 144.0324707 70.09179688 C142.75356419 71.76217787 141.49748208 73.45019597 140.26049805 75.15185547 C138.52115264 77.34336682 136.8867491 79.09273869 134.87426758 80.99267578 C124.57077035 91.4475732 124.62791092 103.02013251 124.7087059 116.8983736 C124.74594367 119.98436531 124.81456028 123.0692077 124.8873291 126.15454102 C125.01965297 132.34060146 125.03755242 138.52840058 125.06955147 144.71562195 C125.08938418 146.85663746 125.13433551 148.99585928 125.18455505 151.13635254 C125.39839097 165.9184925 125.39839097 165.9184925 120.35913086 171.97070312 C116.73822667 173.55051602 113.13701526 173.4677924 109.25390625 173.46875 C108.40577866 173.47636353 107.55765106 173.48397705 106.68382263 173.49182129 C104.89267923 173.50261137 103.10147297 173.50547982 101.31030273 173.50097656 C98.57493813 173.50000442 95.84238141 173.54163071 93.10742188 173.5859375 C91.36458917 173.59114498 89.62174674 173.59383269 87.87890625 173.59375 C87.0641835 173.61014526 86.24946075 173.62654053 85.41004944 173.64343262 C81.23585516 173.5928247 79.49320176 173.37447333 76.07006836 170.77539062 C72.54026001 166.04289136 71.75237309 162.43709917 71.88745117 156.56762695 C71.90954147 155.28471268 71.93163177 154.0017984 71.95439148 152.68000793 C71.96967077 151.99802652 71.98495007 151.31604511 72.00069237 150.6133976 C72.07356496 146.95029456 72.08294412 143.28674984 72.10351562 139.62304688 C72.13291775 134.9836589 72.17989866 130.34680217 72.2980957 125.70874023 C73.05262216 101.72597481 73.05262216 101.72597481 61.30786133 81.42163086 C60.73452057 80.83413055 60.16117981 80.24663025 59.57046509 79.6413269 C57.45668076 77.43216536 55.73081516 75.01261634 53.984375 72.5078125 C52.90734292 71.04606909 51.82926098 69.5850985 50.75 68.125 C50.16629639 67.33456299 49.58259277 66.54412598 48.98120117 65.72973633 C47.32236827 63.4853251 45.66163395 61.24233794 44 59 C43.56703613 58.41492676 43.13407227 57.82985352 42.68798828 57.22705078 C30.52448564 40.81008413 17.95362112 24.53830911 3.84375 9.73828125 C3.1940625 9.04089844 2.544375 8.34351563 1.875 7.625 C1.29492188 7.01914063 0.71484375 6.41328125 0.1171875 5.7890625 C-1 4 -1 4 -0.56982422 1.88818359 C-0.28776123 0.95353271 -0.28776123 0.95353271 0 0 Z " fill="#1D3C58" transform="translate(1179,158)"/>
<path d="M0 0 C0.85049927 -0.0004985 1.70099854 -0.00099701 2.57727051 -0.00151062 C4.37266378 0.00082638 6.16806055 0.01053288 7.96337891 0.02709961 C10.70895739 0.05069709 13.45356456 0.04765715 16.19921875 0.04101562 C17.94531828 0.04659259 19.69141373 0.05370258 21.4375 0.0625 C22.25738403 0.06158859 23.07726807 0.06067719 23.92199707 0.05973816 C31.22120159 0.15037968 31.22120159 0.15037968 34.21875 2.36328125 C38.4788124 9.14782507 38.36839233 16.52546951 38.36401367 24.27685547 C38.36737228 25.14124237 38.3707309 26.00562927 38.37419128 26.89620972 C38.38364399 29.73681092 38.38564146 32.57735283 38.38671875 35.41796875 C38.38993502 37.40422591 38.39329936 39.39048283 38.39680481 41.3767395 C38.40278168 45.53420562 38.40464617 49.69165099 38.40405273 53.84912109 C38.40395114 59.16052102 38.41760759 64.4717872 38.43482494 69.78315544 C38.44597538 73.88396814 38.44797101 77.9847488 38.44744301 82.0855751 C38.44861837 84.04306627 38.45301506 86.00055838 38.46077538 87.95803452 C38.47063792 90.70242281 38.46767276 93.44652447 38.46166992 96.19091797 C38.46728943 96.98912964 38.47290894 97.78734131 38.47869873 98.60974121 C38.43623781 106.29848066 37.88752388 113.69450737 32.21875 119.36328125 C28.97550352 120.98490449 25.41515154 120.52634404 21.8515625 120.53125 C21.02042938 120.5345784 20.18929626 120.5379068 19.33297729 120.54133606 C17.5727392 120.54640341 15.81249148 120.54874444 14.05224609 120.54858398 C11.36149195 120.55076686 8.67115012 120.5689144 5.98046875 120.58789062 C4.27083474 120.59082532 2.56119877 120.59280961 0.8515625 120.59375 C0.04727814 120.60093552 -0.75700623 120.60812103 -1.58566284 120.61552429 C-8.78408809 120.58615297 -8.78408809 120.58615297 -11.78125 118.36328125 C-15.745724 111.75582458 -15.93261833 105.69671055 -15.94238281 98.21777344 C-15.94734772 97.30491074 -15.95231262 96.39204803 -15.95742798 95.45152283 C-15.97200778 92.43772623 -15.97884488 89.42398229 -15.984375 86.41015625 C-15.99013019 84.30893961 -15.99588787 82.20772298 -16.00164795 80.10650635 C-16.01214625 75.70169837 -16.01799648 71.29690857 -16.02148438 66.89208984 C-16.02696456 61.26221664 -16.05098753 55.63258583 -16.07945633 50.00278854 C-16.09812834 45.66177683 -16.10329076 41.32082295 -16.10482025 36.97977448 C-16.10783733 34.90504889 -16.11583378 32.83032409 -16.12900543 30.75563812 C-16.14616027 27.84569635 -16.14416259 24.93633973 -16.13769531 22.02636719 C-16.1469101 21.17825974 -16.15612488 20.33015228 -16.1656189 19.4563446 C-16.12141575 13.07098796 -15.25233878 6.43925663 -11.14257812 1.32348633 C-7.49090456 -0.16142187 -3.87794892 -0.04356095 0 0 Z " fill="#1D3C58" transform="translate(702.78125,210.63671875)"/>
<path d="M0 0 C8.29007238 7.95223244 12.75011802 16.61578477 13.0625 28.1875 C12.73027684 40.07832045 8.58788173 49.34900623 -0.0625 57.5625 C-8.81878002 64.82010902 -19.28367389 66.48616392 -30.3125 65.75 C-40.75168405 63.96215716 -48.88393945 58.26880641 -55.58203125 50.20703125 C-61.9529487 41.16119135 -62.72545518 30.47549644 -61.3125 19.75 C-58.96641947 10.22512927 -53.74807033 2.58541761 -45.73828125 -3.06640625 C-30.86635951 -11.87075364 -13.28155044 -11.3954131 0 0 Z " fill="#F6D3BA" transform="translate(411.3125,154.25)"/>
<path d="M0 0 C-1.29955858 4.21856709 -2.92569674 8.16230888 -4.76635742 12.16235352 C-24.03726386 54.07263988 -26.80288068 101.99781339 -11.07275391 145.56835938 C-7.32068865 155.38292192 -2.77729642 164.72747784 2.3359375 173.8984375 C3.76556845 176.5630548 4.95025784 179.1688772 6 182 C-3.26190729 184.84480623 -12.38443671 187.608547 -22 189 C-31.23292249 175.51394886 -38.03514794 161.89341216 -42.875 146.25 C-43.16133301 145.32840088 -43.44766602 144.40680176 -43.74267578 143.45727539 C-47.29660692 131.40318725 -48.3443287 119.65872683 -48.25 107.125 C-48.24623352 106.46436554 -48.24246704 105.80373108 -48.23858643 105.12307739 C-47.96924359 64.80148045 -32.20286471 32.2417382 -5 3 C-4.45988281 2.41089844 -3.91976562 1.82179687 -3.36328125 1.21484375 C-2 0 -2 0 0 0 Z " fill="#F5D2B9" transform="translate(269,162)"/>
<path d="M0 0 C5.28 0 10.56 0 16 0 C19.16535778 3.24913595 20.18254061 5.0217762 22 9 C23.09323168 10.90432632 24.23444508 12.7747614 25.38034058 14.64782715 C26.65184641 16.72787221 27.89669402 18.82177777 29.13476562 20.921875 C29.55411377 21.63279297 29.97346191 22.34371094 30.40551758 23.07617188 C30.82857178 23.79353516 31.25162598 24.51089844 31.6875 25.25 C32.54989847 26.70847039 33.41252708 28.16680471 34.27539062 29.625 C35.8552015 32.29505026 37.43345379 34.96601027 39.01049805 37.63769531 C40.66354674 40.43138615 42.32585737 43.21891784 44 46 C48.3721859 39.60468711 52.3991529 33.0588531 56.3125 26.375 C56.88444092 25.42093262 57.45638184 24.46686523 58.0456543 23.48388672 C61.01708275 18.50907431 63.81449826 13.5734701 66.14648438 8.26464844 C67.76188595 5.30037302 69.94831642 2.68086655 72 0 C77.28 0 82.56 0 88 0 C88 25.74 88 51.48 88 78 C82.39 78 76.78 78 71 78 C70.67 63.81 70.34 49.62 70 35 C64.58343034 44.27250335 64.58343034 44.27250335 59.17089844 53.54736328 C58.48386838 54.72176418 57.79670269 55.89608576 57.109375 57.0703125 C56.58947998 57.96351196 56.58947998 57.96351196 56.05908203 58.87475586 C55.0530358 60.59124288 54.02688967 62.29590073 53 64 C52.35272949 65.10827148 51.70545898 66.21654297 51.03857422 67.35839844 C49 70 49 70 46.71630859 71.04736328 C43.71857104 71.22891724 41.81573158 71.10839826 39 70 C35.41253973 66.07236299 33.07290991 61.55185267 30.625 56.875 C29.93713814 55.62304606 29.24575956 54.37301753 28.55078125 53.125 C27.26551565 50.81368107 26.00763954 48.49439886 24.76416016 46.15966797 C23.00552291 43.0098917 21.0010686 40.0016029 19 37 C18.67 50.53 18.34 64.06 18 78 C12.06 78 6.12 78 0 78 C0 52.26 0 26.52 0 0 Z " fill="#1D3C58" transform="translate(688,377)"/>
<path d="M0 0 C10.7353125 -0.12375 10.7353125 -0.12375 21.6875 -0.25 C25.03394653 -0.30462402 25.03394653 -0.30462402 28.44799805 -0.36035156 C43.89389443 -0.50769541 57.18830132 0.77349209 68.96484375 11.84765625 C77.41934653 20.83838542 79.32807887 30.38511327 79.21484375 42.42578125 C78.56793099 53.1880571 73.7598702 62.02456925 66.015625 69.3984375 C56.82935946 76.69760198 46.52442141 78.31745783 35.15625 78.1953125 C34.2600293 78.19329834 33.36380859 78.19128418 32.44042969 78.18920898 C29.12690026 78.17882966 25.8134444 78.15090778 22.5 78.125 C15.075 78.08375 7.65 78.0425 0 78 C0 52.26 0 26.52 0 0 Z M19 16 C19 31.51 19 47.02 19 63 C37.91660846 63.8109812 37.91660846 63.8109812 54 56 C58.59764209 50.43443326 60.47459911 44.34256512 60.25 37.11328125 C59.44973653 30.34855407 57.36185862 25.36430352 52 21 C46.95604876 17.36835511 43.64789716 15.86958785 37.45703125 15.90234375 C36.48999268 15.90484131 35.5229541 15.90733887 34.52661133 15.90991211 C33.30095459 15.91901611 32.07529785 15.92812012 30.8125 15.9375 C26.914375 15.958125 23.01625 15.97875 19 16 Z " fill="#1D3C58" transform="translate(970,377)"/>
<path d="M0 0 C19.47 0 38.94 0 59 0 C59 4.95 59 9.9 59 15 C45.8 15 32.6 15 19 15 C19 20.28 19 25.56 19 31 C30.88 31 42.76 31 55 31 C55 35.95 55 40.9 55 46 C43.12 46 31.24 46 19 46 C19 51.61 19 57.22 19 63 C32.86 63 46.72 63 61 63 C61 67.95 61 72.9 61 78 C40.87 78 20.74 78 0 78 C0 52.26 0 26.52 0 0 Z " fill="#1D3C58" transform="translate(845,377)"/>
<path d="M0 0 C6.6 0 13.2 0 20 0 C21.31097656 3.05894531 21.31097656 3.05894531 22.6484375 6.1796875 C22.95535019 6.89577179 23.26226288 7.61185608 23.57847595 8.34963989 C25.17580064 12.07652848 26.77281722 15.80354871 28.36938477 19.53076172 C31.82163642 27.58922441 35.27672834 35.64644383 38.73974609 43.70028687 C40.40053596 47.56315483 42.0599759 51.42660202 43.71929932 55.2901001 C44.53274125 57.18307758 45.34683033 59.0757771 46.16156006 60.96820068 C47.30594936 63.62654172 48.44813435 66.28581963 49.58984375 68.9453125 C49.93600235 69.74785461 50.28216095 70.55039673 50.6388092 71.3772583 C53 76.88613274 53 76.88613274 53 78 C46.73 78 40.46 78 34 78 C30.61927258 71.36327607 27.48297848 64.69105142 24.57421875 57.8359375 C24.18176468 56.91785309 23.78931061 55.99976868 23.38496399 55.05386353 C22.14960076 52.16212609 20.9184778 49.26860657 19.6875 46.375 C18.8433805 44.39701524 17.99898192 42.41914956 17.15429688 40.44140625 C15.09964105 35.62897397 13.04844993 30.8150769 11 26 C5.38603647 36.63611831 0.78555776 47.67381344 -3.875 58.75 C-4.66630849 60.62254723 -5.4579725 62.49494427 -6.25 64.3671875 C-8.1714281 68.9094757 -10.08553614 73.45474728 -12 78 C-18.93 78 -25.86 78 -33 78 C-29.12150263 67.66481336 -24.84884603 57.5533665 -20.4375 47.4375 C-19.3754884 44.9938192 -18.3144852 42.54970226 -17.25357056 40.10554504 C-16.54127541 38.46462107 -15.82869077 36.82382272 -15.11581421 35.18315125 C-11.71865056 27.36204915 -8.35437849 19.52702958 -5 11.6875 C-4.49009521 10.49632568 -3.98019043 9.30515137 -3.45483398 8.07788086 C-2.30268181 5.38548528 -1.15124648 2.69278297 0 0 Z " fill="#1D3C58" transform="translate(1222,377)"/>
<path d="M0 0 C6.54462782 3.86579513 11.76462134 9.46974379 14.0625 16.80859375 C16.00656857 26.54629438 13.84501679 34.33920235 8.875 42.75 C1.87214768 49.38428114 -5.54822818 52.38137561 -15.10546875 52.20703125 C-23.18593076 51.50839424 -29.19937093 48.08420032 -34.5 42 C-39.95045907 34.59160903 -40.64417144 26.98541976 -39.5 18 C-37.16074059 9.73540838 -32.66121826 4.41832048 -25.40234375 0.015625 C-18.21044063 -3.82399473 -7.30025361 -3.35204249 0 0 Z " fill="#F6D3B9" transform="translate(295.5,250)"/>
<path d="M0 0 C0.8245166 -0.00524185 1.6490332 -0.0104837 2.49853516 -0.0158844 C4.23664222 -0.02228962 5.97479272 -0.02098705 7.71289062 -0.01245117 C10.36667214 -0.00393298 13.01830546 -0.03273422 15.671875 -0.06445312 C17.36458269 -0.06606517 19.05729418 -0.06548754 20.75 -0.0625 C21.93456787 -0.07935097 21.93456787 -0.07935097 23.14306641 -0.09654236 C27.05678124 -0.04721316 28.94913123 0.16282577 32.3359375 2.31616211 C38.14130028 8.34464767 37.59802982 17.29979018 37.53515625 25.16796875 C37.32707967 29.41070096 36.71693766 33.39949721 35.375 37.43359375 C35.16617188 38.11292969 34.95734375 38.79226562 34.7421875 39.4921875 C32.67165759 42.43233997 29.6994386 43.37727314 26.375 44.43359375 C22.75390625 44.82177734 22.75390625 44.82177734 18.9375 44.83203125 C18.25373291 44.83490143 17.56996582 44.83777161 16.86547852 44.84072876 C15.43016728 44.84275615 13.99482757 44.8373197 12.55957031 44.82470703 C10.38022249 44.80863227 8.20272862 44.82459895 6.0234375 44.84375 C4.61978763 44.84176733 3.2161389 44.83792316 1.8125 44.83203125 C0.55308594 44.82864746 -0.70632813 44.82526367 -2.00390625 44.82177734 C-6.24572426 44.36705171 -8.86003662 43.41463164 -12.625 41.43359375 C-16.59800453 35.20921999 -16.83063802 29.40500881 -16.875 22.24609375 C-16.895625 21.43333984 -16.91625 20.62058594 -16.9375 19.78320312 C-16.97339587 14.14306403 -16.55862445 8.38455797 -13.625 3.43359375 C-9.44892531 -0.04614065 -5.20827464 -0.019361 0 0 Z " fill="#FD6D3F" transform="translate(703.625,157.56640625)"/>
<path d="M0 0 C5.94 0 11.88 0 18 0 C18 25.74 18 51.48 18 78 C12.06 78 6.12 78 0 78 C0 52.26 0 26.52 0 0 Z " fill="#1D3C58" transform="translate(1113,377)"/>
<path d="M0 0 C4.44177653 3.7885741 7.87192826 8.01994016 8.91796875 13.859375 C9.17924051 20.67732383 7.46718799 26.78828068 3 32 C-3.05272585 36.66564285 -8.47530027 37.86775779 -16 37 C-22.18665363 35.13614428 -26.43593609 31.31526487 -30 26 C-31.83235757 20.5029273 -32.1772627 14.03352755 -30.05859375 8.57421875 C-27.04455899 3.55712641 -23.5440478 0.10610774 -18.125 -2.25 C-11.62026544 -3.81113629 -5.78875932 -3.39380203 0 0 Z " fill="#F6D3BA" transform="translate(479,235)"/>
<path d="M0 0 C4.23301121 2.82200747 7.17159664 5.95228992 8.8125 10.875 C9.64548827 16.90821504 8.8475619 21.22952347 5.28515625 26.2109375 C2.41465756 29.45452487 -0.28637907 30.62634345 -4.546875 31.18359375 C-10.63815804 31.4881579 -14.36351345 30.63770951 -19.1875 26.875 C-22.92596471 22.08209653 -23.84093382 18.29915138 -23.57421875 12.23828125 C-22.78537926 7.4175955 -20.13576487 4.73075122 -16.625 1.5625 C-11.43239458 -2.03238068 -5.78482046 -2.04170134 0 0 Z " fill="#F6D3BA" transform="translate(445.1875,327.125)"/>
<path d="M0 0 C1.87426758 1.1640625 1.87426758 1.1640625 3.64453125 2.625 C4.31331299 3.1624585 4.98209473 3.69991699 5.67114258 4.25366211 C6.7311145 5.11809937 6.7311145 5.11809937 7.8125 6 C15.77676692 12.29148603 23.98596903 17.36906814 33 22 C33.61407715 22.31614258 34.2281543 22.63228516 34.86083984 22.95800781 C38.22177689 24.67797938 41.60029301 26.35809605 45 28 C45 28.33 45 28.66 45 29 C31.35172665 28.79292275 18.49629742 26.34481177 5.75390625 21.37890625 C2.62268533 20.22872833 0.20787454 19.63687861 -3.0625 19.3125 C-8.27174394 18.46380295 -12.45297266 16.52315874 -17.0625 14.0625 C-17.71806885 13.71421143 -18.3736377 13.36592285 -19.04907227 13.00708008 C-22.21909621 11.24512397 -23.95563802 10.06654297 -26 7 C-22.61225614 5.6249456 -19.21375553 4.2787456 -15.8125 2.9375 C-14.85279297 2.54755859 -13.89308594 2.15761719 -12.90429688 1.75585938 C-11.97294922 1.39169922 -11.04160156 1.02753906 -10.08203125 0.65234375 C-9.22843018 0.31195068 -8.3748291 -0.02844238 -7.49536133 -0.37915039 C-4.55099673 -1.11171268 -2.87968396 -0.91681996 0 0 Z " fill="#F3D0B8" transform="translate(309,381)"/>
<path d="M0 0 C3.41420557 2.7785062 6.1214374 5.32415571 6.9296875 9.76953125 C7.15062199 15.16401511 6.67503174 19.46270829 3.2421875 23.76953125 C-0.12311024 27.15880973 -3.14251865 28.73425663 -8.015625 28.79296875 C-12.95421712 28.43618833 -16.2138573 26.99819142 -20.0703125 23.76953125 C-23.04610372 19.97283211 -23.90747695 16.57317987 -24.0703125 11.76953125 C-22.8578535 5.58952179 -20.23253306 2.24612877 -15.0703125 -1.23046875 C-10.04477627 -2.88521848 -4.60160202 -2.73491441 0 0 Z " fill="#F5D2B9" transform="translate(285.0703125,208.23046875)"/>
<path d="M0 0 C4.15939329 3.86229376 6.30276241 7.22211658 7.125 12.875 C6.41023622 17.96769195 4.97362453 22.26532654 1.1171875 25.83203125 C-3.40341362 28.80721757 -8.08686848 29.39283763 -13.375 28.4375 C-16.6875 26.75 -16.6875 26.75 -19.375 24.4375 C-20.15875 23.7775 -20.9425 23.1175 -21.75 22.4375 C-24.36654429 17.60695669 -24.08742318 12.80248271 -23.375 7.4375 C-21.62122296 3.59268112 -20.15361729 1.99365521 -16.75 -0.4375 C-10.87855007 -2.39464998 -5.66500051 -2.62268542 0 0 Z " fill="#F5D2B9" transform="translate(324.375,298.5625)"/>
<path d="M0 0 C8.29007238 7.95223244 12.75011802 16.61578477 13.0625 28.1875 C12.74643585 39.49996273 8.99514437 48.02333107 1.3125 56.3125 C0.77625 56.786875 0.24 57.26125 -0.3125 57.75 C-1.3025 57.255 -1.3025 57.255 -2.3125 56.75 C-1.92578125 56.30011719 -1.5390625 55.85023438 -1.140625 55.38671875 C6.3742405 46.10474379 8.92546029 36.6313994 7.6875 24.75 C5.67887005 14.69139926 0.02011266 6.62307583 -8.3125 0.75 C-17.08213139 -4.08134951 -27.03720954 -6.02791956 -36.91796875 -3.61328125 C-38.42095455 -3.0971806 -39.91564963 -2.55592232 -41.3984375 -1.984375 C-43.66356061 -1.11530736 -45.92070635 -0.63577317 -48.3125 -0.25 C-34.74971545 -12.90859892 -13.55664496 -11.63144094 0 0 Z " fill="#E8A683" transform="translate(411.3125,154.25)"/>
<path d="M0 0 C3.24268686 2.64534981 4.80645745 4.58068793 5.375 8.75 C4.97388773 12.22630637 4.086378 14.26944512 1.69140625 16.85546875 C-1.08469117 18.73398271 -3.56118881 18.75802839 -6.83984375 18.51171875 C-10.53044369 17.63745366 -11.97047452 16.14249107 -14 13 C-14.97986268 8.66060814 -14.52314045 5.84784832 -12.1875 2.0625 C-8.23297568 -1.6660515 -5.07693841 -1.15789823 0 0 Z " fill="#F5D3BA" transform="translate(388,376)"/>
<path d="M0 0 C3.24875254 2.22283069 3.89631231 3.61981182 4.9375 7.4375 C5.00735492 11.41923028 4.39706001 12.89269999 2 16 C-0.37040308 18.37040308 -1.06302753 18.34465793 -4.3125 18.4375 C-7.84656762 18.33489804 -8.95521209 18.02833521 -12.0625 16.0625 C-14.64734419 11.97677854 -14.97008201 8.71812614 -14 4 C-10.14213247 -1.3211966 -6.12903666 -1.39785047 0 0 Z " fill="#F4CEB4" transform="translate(366,128)"/>
<path d="M0 0 C6.54462782 3.86579513 11.76462134 9.46974379 14.0625 16.80859375 C15.73545501 25.18830587 14.61166461 32.512881 10.5 40 C8.25 42.625 8.25 42.625 6.5 44 C7.15040327 41.1836907 8.03233589 38.5723379 9.0625 35.875 C11.58280658 28.15026032 11.38953185 22.22657991 8.0625 14.75 C4.07217783 7.39343449 -1.68349288 3.6492589 -9.5 1 C-15.80930339 0.36720851 -21.5394944 0.88070912 -27.5 3 C-27.5 2.34 -27.5 1.68 -27.5 1 C-19.40182432 -3.74039552 -8.50064988 -3.8532808 0 0 Z " fill="#E8A886" transform="translate(295.5,250)"/>
<path d="M0 0 C4.44177653 3.7885741 7.87192826 8.01994016 8.91796875 13.859375 C9.18606593 20.85543485 7.29666019 26.55756375 3 32 C2.67 31.34 2.34 30.68 2 30 C2.474375 29.01 2.94875 28.02 3.4375 27 C5.74413487 21.87414474 6.16354722 16.2904615 4.2734375 10.9453125 C1.63161035 5.94087571 -1.74948418 2.97848514 -6.875 0.75 C-13.10033782 -0.74408108 -18.05535492 0.0588914 -24 2 C-18.14169575 -5.16014964 -7.3509481 -4.30967349 0 0 Z " fill="#E9AB88" transform="translate(479,235)"/>
<path d="M0 0 C2.4375 1.5 2.4375 1.5 4 3 C3.67 3.99 3.34 4.98 3 6 C0.49776116 7.20142542 -1.90888222 8.22474523 -4.5 9.1875 C-5.20253906 9.46013672 -5.90507812 9.73277344 -6.62890625 10.01367188 C-11.79634633 12 -11.79634633 12 -13 12 C-13.49065421 5.62149533 -13.49065421 5.62149533 -11.125 2.625 C-7.33113792 -0.27618865 -4.77096942 -0.32903237 0 0 Z " fill="#F4CFB6" transform="translate(486,271)"/>
<path d="M0 0 C4.23301121 2.82200747 7.17159664 5.95228992 8.8125 10.875 C9.34339929 16.32692731 9.29094436 20.38200937 5.8125 24.875 C5.4825 24.215 5.1525 23.555 4.8125 22.875 C5.1425 21.885 5.4725 20.895 5.8125 19.875 C6.34712577 13.45949072 5.68849437 10.07699245 1.8125 4.875 C-2.93308174 1.45376665 -7.54384987 1.34141853 -13.1875 1.875 C-14.52782752 2.17899181 -15.86421927 2.50376287 -17.1875 2.875 C-12.5128931 -2.24480756 -6.22500388 -2.19706019 0 0 Z " fill="#E7A988" transform="translate(445.1875,327.125)"/>
<path d="M0 0 C4.15939329 3.86229376 6.30276241 7.22211658 7.125 12.875 C6.5023517 17.31136916 4.85847723 20.59871101 2.625 24.4375 C2.295 23.7775 1.965 23.1175 1.625 22.4375 C2.0890625 21.07625 2.0890625 21.07625 2.5625 19.6875 C3.67494949 16.28471333 4.00259635 13.98690567 3.625 10.4375 C2.19878316 7.72623616 2.19878316 7.72623616 0.625 5.4375 C0.625 4.7775 0.625 4.1175 0.625 3.4375 C-3.45223734 1.48718308 -6.69192422 1.22168029 -11.1875 1.3125 C-12.34894531 1.33054687 -13.51039063 1.34859375 -14.70703125 1.3671875 C-16.02767578 1.40199219 -16.02767578 1.40199219 -17.375 1.4375 C-14.61780108 -4.07689783 -4.54757077 -2.10535684 0 0 Z " fill="#EAAF8E" transform="translate(324.375,298.5625)"/>
<path d="M0 0 C0.99 0.103125 1.98 0.20625 3 0.3125 C5 3.3125 5 3.3125 4.75 5.875 C4 8.3125 4 8.3125 2 10.3125 C-3.56818182 9.74431818 -3.56818182 9.74431818 -5 8.3125 C-5.1875 5.375 -5.1875 5.375 -5 2.3125 C-3 0.3125 -3 0.3125 0 0 Z " fill="#EFC9AF" transform="translate(416,335.6875)"/>
<path d="M0 0 C2.3125 1.4375 2.3125 1.4375 3.25 3.875 C3.3125 6.4375 3.3125 6.4375 1.3125 9.4375 C-0.5625 10.25 -0.5625 10.25 -2.6875 10.4375 C-4.9375 9.5 -4.9375 9.5 -6.6875 8.4375 C-6.6875 6.1275 -6.6875 3.8175 -6.6875 1.4375 C-4.10756343 -0.28245771 -3.0937542 -0.64752995 0 0 Z " fill="#F2CBB2" transform="translate(292.6875,305.5625)"/>
<path d="M0 0 C3.41420557 2.7785062 6.1214374 5.32415571 6.9296875 9.76953125 C6.97736131 14.64020553 6.93822425 18.48593903 3.8671875 22.39453125 C3.2278125 22.84828125 2.5884375 23.30203125 1.9296875 23.76953125 C2.2596875 22.92390625 2.5896875 22.07828125 2.9296875 21.20703125 C4.43287816 16.03981335 4.76170276 11.88237395 2.3046875 7.01953125 C0.07984479 3.55780047 -2.10250117 2.06670034 -6.0703125 0.76953125 C-10.14621576 0.35249868 -14.15403095 0.46410407 -18.0703125 1.76953125 C-13.5109111 -3.47378036 -5.8150082 -3.45608978 0 0 Z " fill="#E9AD8C" transform="translate(285.0703125,208.23046875)"/>
<path d="M0 0 C2 2 2 2 2.25 4.5 C2 7 2 7 0 9 C-3 9.25 -3 9.25 -6 9 C-6.66 8.34 -7.32 7.68 -8 7 C-7.75 3.4375 -7.75 3.4375 -7 0 C-4.29393021 -1.35303489 -2.8671629 -0.7884698 0 0 Z " fill="#F2CCB2" transform="translate(435,183)"/>
<path d="M0 0 C2.31 0 4.62 0 7 0 C9.16666667 4.33333333 9.16666667 4.33333333 8.4375 7.25 C7 9 7 9 4.5625 9.875 C2 10 2 10 -1 8 C-1.8125 6.125 -1.8125 6.125 -2 4 C-1.0625 1.75 -1.0625 1.75 0 0 Z " fill="#F1CCB2" transform="translate(344,151)"/>
<path d="M0 0 C3.84611296 0.94465932 5.1519251 1.81542416 7.5625 4.875 C8.96185013 7.67370027 8.81515405 9.77998792 8.5625 12.875 C7.046875 14.56640625 7.046875 14.56640625 5.5625 15.875 C5.63210938 14.97007812 5.63210938 14.97007812 5.703125 14.046875 C5.96275852 8.97014081 5.96275852 8.97014081 4.0625 4.375 C0.5412637 2.26225822 -2.35172784 2.14738481 -6.4375 1.875 C-3.4375 -0.125 -3.4375 -0.125 0 0 Z " fill="#EDB594" transform="translate(384.4375,375.125)"/>
<path d="M0 0 C0.99 0.33 1.98 0.66 3 1 C1.67494706 7.4596331 -2.59409935 11.38917374 -7 16 C-7.66 15.67 -8.32 15.34 -9 15 C-8.60167969 14.50371094 -8.20335937 14.00742188 -7.79296875 13.49609375 C-4.40115025 9.14697367 -1.93684016 5.1649071 0 0 Z " fill="#EBB190" transform="translate(418,196)"/>
<path d="M0 0 C1.2375 0.7425 1.2375 0.7425 2.5 1.5 C1.51 2.16 0.52 2.82 -0.5 3.5 C-1.0671875 3.17386719 -1.634375 2.84773438 -2.21875 2.51171875 C-4.70166401 1.41056339 -6.30398946 1.26171898 -9 1.3125 C-9.7528125 1.31894531 -10.505625 1.32539063 -11.28125 1.33203125 C-13.45990143 1.49696437 -15.40204811 1.90399094 -17.5 2.5 C-12.6955449 -2.76202225 -6.21740305 -2.66460131 0 0 Z " fill="#ECAF8F" transform="translate(445.5,327.5)"/>
<path d="M0 0 C3.70237797 0.31917051 5.08801878 0.67403953 7.625 3.3125 C7.625 3.9725 7.625 4.6325 7.625 5.3125 C7.06296875 4.99539063 6.5009375 4.67828125 5.921875 4.3515625 C3.47303683 3.24375475 1.54112145 2.92274601 -1.125 2.6875 C-1.92421875 2.61273438 -2.7234375 2.53796875 -3.546875 2.4609375 C-4.15015625 2.41195313 -4.7534375 2.36296875 -5.375 2.3125 C-3.375 0.3125 -3.375 0.3125 0 0 Z " fill="#E6B190" transform="translate(482.375,270.6875)"/>
</svg>
